<?xml version="1.0" encoding="utf-8"?>
<!DOCTYPE svg PUBLIC "-//W3C//DTD SVG 1.0//EN" "http://www.w3.org/TR/2001/REC-SVG-20010904/DTD/svg10.dtd">
<svg version="1.0" xmlns="http://www.w3.org/2000/svg" width="288px" height="253px" viewBox="0 0 288 253" preserveAspectRatio="xMidYMid meet">
 <g fill="#000000">
  <path d="M132.7 238.8 c-40.6 -2.9 -78.5 -28.5 -95.8 -64.6 -7.5 -15.6 -10.9 -30.6 -10.9 -48.2 0 -24.8 6.6 -45.4 21 -65.9 13.6 -19.2 35.4 -34.9 59.1 -42.5 26.5 -8.5 58.8 -7.2 83.4 3.3 27.8 11.8 47.9 30.9 60.5 57.4 17.8 37.1 13.5 80.3 -11.1 113.8 -6.4 8.6 -19.6 21.3 -28.4 27 -23.5 15.5 -48.5 21.8 -77.8 19.7z m29.6 -10.3 c17 -3 36 -11.4 48.4 -21.5 5.9 -4.7 8.2 -8 4.7 -6.5 -3.5 1.4 -19.9 1.8 -25.4 0.6 -14.9 -3.2 -28.6 -14.4 -35.9 -29.2 -4.6 -9.5 -9 -25 -9.4 -33 l-0.2 -5.4 10 0.3 c16.2 0.4 15.2 -0.4 20.5 15.3 2.5 7.4 5.8 15.7 7.4 18.4 7.2 12.1 18.4 20.3 34.1 24.6 l7.9 2.1 3.4 -3.8 c9.4 -10.8 17.7 -28.2 21.4 -44.8 2.6 -11.9 2.1 -33 -1 -44.9 -13.9 -51.8 -64.7 -85.5 -118.8 -78.7 -9.8 1.2 -21.9 4.3 -21.9 5.5 0 0.5 2.2 1.7 4.8 2.7 11.8 4.4 25.9 17.4 34.2 31.5 6.3 10.7 14.4 33 16.7 45.6 0.2 1.6 -1.5 2.4 -10.5 5.2 -7.2 2.1 -11 2.9 -11.2 2.1 -0.1 -0.6 -1 -6.4 -1.9 -12.8 -2.6 -18.3 -7.2 -34.4 -9.7 -33.6 -0.6 0.2 -1.2 4.3 -1.5 10.2 -0.9 22.3 -10.4 53.5 -26.2 86.9 -9.3 19.5 -17.2 29.6 -27.1 34.6 -2.3 1.2 -4.1 2.5 -4.1 2.9 0 1.4 12.5 10.1 21.2 14.6 21 11.2 46.6 15.2 70.1 11.1z m-82.4 -46.1 c3.6 -3.9 7.1 -9.6 11.2 -17.9 6.1 -12.5 6.7 -14.5 4.8 -14.5 -2.2 0 -13.5 8.8 -20.2 15.8 -9.8 10.2 -14.1 20.7 -10.1 24.6 1.4 1.4 1.9 1.4 5.3 -0.4 2.1 -1 6.2 -4.5 9 -7.6z m-25 -8.1 c5.1 -14 19.5 -28 42.1 -41 l8.4 -4.9 2.3 -7.4 c7.2 -23.4 9.7 -49.5 5.9 -62.5 -2.6 -8.7 -7 -16.5 -12.6 -22 -4.7 -4.6 -5.1 -4.8 -7.7 -3.6 -6.4 2.9 -20.1 12.9 -26.8 19.6 -13.7 13.7 -23.3 30.4 -28.1 49 -3.6 13.7 -3.8 32.8 -0.6 45.8 3.5 14.1 11.5 32.7 14.1 32.7 0.5 0 1.8 -2.6 3 -5.7z"/>
 </g>
 <g fill="#faca3c">
  <path d="M197.1 147.9 c-5.9 -25.9 -4.3 -24.4 -24.9 -23.6 -14.9 0.6 -28.2 2.8 -40.2 6.6 -3.5 1.1 -6.6 1.8 -6.9 1.6 -0.7 -0.8 18.9 -9.5 27.9 -12.5 4.7 -1.5 14.1 -3.9 20.9 -5.4 13.2 -2.7 16.5 -4.5 17.6 -9.5 0.3 -1.4 1.2 -9.3 2 -17.5 0.8 -8.2 1.6 -15.1 1.8 -15.3 0.2 -0.2 1.8 6.3 3.6 14.4 1.8 8.2 3.9 16.2 4.8 17.9 2.4 4.9 6.2 6.2 23.3 7.9 8.5 0.9 15.6 1.8 15.8 2 0.3 0.2 -0.6 0.6 -1.9 0.9 -21.4 4.6 -26.9 5.8 -29.8 6.7 -5 1.7 -6.9 6.9 -8.2 23.1 -0.6 7.3 -1.4 14.1 -1.8 15.2 -0.5 1.2 -1.8 -3 -4 -12.5z"/>
 </g>
</svg>